<svg id="_004-scientist" data-name="004-scientist" xmlns="http://www.w3.org/2000/svg" width="92.012" height="108.863" viewBox="0 0 92.012 108.863">
  <circle id="Ellipse_52" data-name="Ellipse 52" cx="16.692" cy="16.692" r="16.692" transform="translate(40.721 55.418) rotate(-45)" fill="#544f56"/>
  <path id="Path_13579" data-name="Path 13579" d="M320.1,176.589a16.757,16.757,0,0,0-3.289.326,16.693,16.693,0,0,1,0,32.731,16.692,16.692,0,1,0,3.289-33.057Z" transform="translate(-255.761 -137.865)" fill="#444145"/>
  <path id="Path_13580" data-name="Path 13580" d="M228.155,268.977a2.823,2.823,0,0,1-1.787-2.626v-13.1H204.76v11.092l-2.193,2.01c0,1.038.73,18.414.73,18.414h25.879V269.38Z" transform="translate(-166.572 -197.714)" fill="#c38778"/>
  <path id="Path_13581" data-name="Path 13581" d="M230.586,357.45a20.75,20.75,0,0,1-25.034-.635l1.528,30.613h21.744Z" transform="translate(-168.902 -278.569)" fill="#9ec8fc"/>
  <path id="Path_13582" data-name="Path 13582" d="M290.668,286.488l-.909-.359a2.823,2.823,0,0,1-1.787-2.626V275.22l-6.5,1.754v8.912a2.822,2.822,0,0,0,1.787,2.626l7.407,2.921Z" transform="translate(-228.175 -214.867)" fill="#ab6652"/>
  <path id="Path_13583" data-name="Path 13583" d="M97.864,314.085a2.822,2.822,0,0,1-1.776,2.387l-19.721,7.776a11.291,11.291,0,0,0-6.235,6.053,55.256,55.256,0,0,0-4.473,21.777,1.989,1.989,0,0,0,1.989,1.989H97.864V314.085Z" transform="translate(-59.686 -245.209)" fill="#fbfbfb"/>
  <path id="Path_13584" data-name="Path 13584" d="M339.291,332.41a11.291,11.291,0,0,0-6.235-6.053l-19.721-7.776a2.823,2.823,0,0,1-1.662-1.8v39.391h30.1a1.989,1.989,0,0,0,1.989-1.989A55.248,55.248,0,0,0,339.291,332.41Z" transform="translate(-251.752 -247.317)" fill="#fbfbfb"/>
  <path id="Path_13585" data-name="Path 13585" d="M361.853,345.365a11.29,11.29,0,0,0-6.235-6.053l-15.045-5.933v4.787l8.467,3.339a11.29,11.29,0,0,1,6.235,6.054,55.254,55.254,0,0,1,4.47,21.573h4.592a1.989,1.989,0,0,0,1.989-1.989A55.248,55.248,0,0,0,361.853,345.365Z" transform="translate(-274.314 -260.272)" fill="#e7e7e7"/>
  <path id="Path_13586" data-name="Path 13586" d="M162.219,321.614a2.4,2.4,0,0,1,.141,2.5l-1.632,3.037a2.4,2.4,0,0,0-.1,2.061l7.042,16.851h3.623V303.829l-6.274,3.537a2.408,2.408,0,0,0-.95.979l-4.081,7.786a2.4,2.4,0,0,0,.153,2.48Z" transform="translate(-133.115 -237.202)" fill="#e3e0e4"/>
  <path id="Path_13587" data-name="Path 13587" d="M322.357,318.611a2.4,2.4,0,0,0,.153-2.48l-4.081-7.786a2.408,2.408,0,0,0-.95-.979l-6.375-3.537.1,42.236h3.623l7.042-16.851a2.4,2.4,0,0,0-.1-2.061l-1.632-3.037a2.4,2.4,0,0,1,.141-2.5Z" transform="translate(-251.308 -237.202)" fill="#e3e0e4"/>
  <path id="Path_13588" data-name="Path 13588" d="M201.649,14.647C199.5,3.074,188.073,5.606,188.073,5.606S184.729,0,173.459,0,145.1,11,155.284,36.057l43.238,1.421s5.274-11.257,3.127-22.83Z" transform="translate(-127.225)" fill="#544f56"/>
  <path id="Path_13589" data-name="Path 13589" d="M333.108,33.77c-1.755-9.457-9.705-9.5-12.555-9.193,2.6,1.168,5.086,3.608,5.976,8.541,1.977,10.961-2.337,21.645-3.033,23.27l6.486.213S335.255,45.343,333.108,33.77Z" transform="translate(-258.684 -19.123)" fill="#444145"/>
  <g id="Group_8814" data-name="Group 8814" transform="translate(21.094 8.43)">
    <circle id="Ellipse_53" data-name="Ellipse 53" cx="6.254" cy="6.254" r="6.254" transform="translate(43.949 24.751)" fill="#c38778"/>
    <circle id="Ellipse_54" data-name="Ellipse 54" cx="6.254" cy="6.254" r="6.254" transform="translate(0 22.553)" fill="#c38778"/>
    <path id="Path_13590" data-name="Path 13590" d="M201.553,41.578c-2.792-1.6-7.008-2.448-10.21-2.882a28.244,28.244,0,0,0-7.587,0c-3.2.434-7.418,1.278-10.21,2.882a5.345,5.345,0,0,0-2.285,2.614c-2.687,6.57-13.06,35.5,6.812,48.093a17.746,17.746,0,0,0,13.372,2.31c1.95-.437,1.647-2.3,3.388-3.407.324-.205,2.834.681,3.142.467,18.586-12.9,8.506-41,5.863-47.463A5.344,5.344,0,0,0,201.553,41.578Z" transform="translate(-159.24 -38.44)" fill="#c38778"/>
  </g>
  <path id="Path_13591" data-name="Path 13591" d="M268.713,44.2a5.343,5.343,0,0,0-2.285-2.614c-2.792-1.6-7.008-2.448-10.21-2.882a28.24,28.24,0,0,0-6.963-.074c.208.023.416.046.624.074,3.2.434,7.418,1.278,10.21,2.882a5.345,5.345,0,0,1,2.285,2.614c2.687,6.57,13.06,35.5-6.812,48.093a17.639,17.639,0,0,1-6.307,2.456A17.738,17.738,0,0,0,261.9,92.293C281.773,79.7,271.4,50.77,268.713,44.2Z" transform="translate(-203.021 -30.018)" fill="#b46e5a"/>
  <path id="Path_13592" data-name="Path 13592" d="M208.813,62.433a52.277,52.277,0,0,0-3.594-18.767,5.581,5.581,0,0,0-2.355-2.756c-2.9-1.707-7.289-2.638-10.629-3.128a29.5,29.5,0,0,0-7.923-.088c-3.349.416-7.761,1.249-10.7,2.891a5.579,5.579,0,0,0-2.416,2.7c-1.127,2.671-4.709,9.278-4.795,16.992,0,0,20.4-2.132,30.1-11.129,0,0,3.5,13.185,12.307,13.282Z" transform="translate(-138.341 -29.252)" fill="#544f56"/>
  <path id="Path_13593" data-name="Path 13593" d="M373.285,463.525h3.291a33.771,33.771,0,0,0-.917-7.985,1.645,1.645,0,0,0-3.195.783A30.387,30.387,0,0,1,373.285,463.525Z" transform="translate(-299.175 -354.665)" fill="#e3e0e4"/>
  <path id="Path_13594" data-name="Path 13594" d="M62.285,296.724h2.222L64.4,307.389a36.266,36.266,0,0,1-.25,3.888H74.531a36.26,36.26,0,0,1-.25-3.888l-.108-10.665H76.4a1.645,1.645,0,0,0,0-3.289H62.285a1.645,1.645,0,0,0,0,3.289Z" transform="translate(-55.768 -229.087)" fill="#e7e7e7"/>
  <path id="Path_13595" data-name="Path 13595" d="M65.163,390.375l-4.9-10.649a36.259,36.259,0,0,1-3.23-12.593H46.961a36.254,36.254,0,0,1-3.23,12.593l-4.9,10.649a3.488,3.488,0,0,0,3.089,5.109H62.074A3.488,3.488,0,0,0,65.163,390.375Z" transform="translate(-38.423 -286.625)" fill="#347e79"/>
  <path id="Path_13596" data-name="Path 13596" d="M341.971,98.736a9.469,9.469,0,0,0,4.1,1.019c1.118-5.658-1.24-10.818-2.329-14.522A44.837,44.837,0,0,1,341.971,98.736Z" transform="translate(-275.406 -66.542)" fill="#444145"/>
</svg>
