<svg id="_24-Anywhere" data-name="24-Anywhere" xmlns="http://www.w3.org/2000/svg" xmlns:xlink="http://www.w3.org/1999/xlink" width="112.277" height="112.277" viewBox="0 0 112.277 112.277">
  <defs>
    <linearGradient id="linear-gradient" x1="0.134" y1="0.743" x2="0.866" y2="0.133" gradientUnits="objectBoundingBox">
      <stop offset="0" stop-color="#fc8450"/>
      <stop offset="1" stop-color="#f0d160"/>
    </linearGradient>
    <linearGradient id="linear-gradient-2" x1="0.341" y1="0.659" x2="1.142" y2="-0.142" gradientUnits="objectBoundingBox">
      <stop offset="0" stop-color="#5d99ca"/>
      <stop offset="1" stop-color="#7ed7de"/>
    </linearGradient>
    <linearGradient id="linear-gradient-3" x1="0.205" y1="0.795" x2="0.685" y2="0.315" xlink:href="#linear-gradient-2"/>
  </defs>
  <g id="flat" transform="translate(0 0)">
    <circle id="Ellipse_50" data-name="Ellipse 50" cx="42" cy="42" r="42" transform="translate(4 24.823)" fill="#72b8ab"/>
    <path id="Path_13540" data-name="Path 13540" d="M45.612,96a45.613,45.613,0,1,0,45.612,45.612A45.664,45.664,0,0,0,45.612,96Zm0,84.208c-4.163,0-8.446-3.788-11.748-10.392a50.676,50.676,0,0,1-3.8-10.66h31.1a50.676,50.676,0,0,1-3.8,10.66c-3.3,6.6-7.585,10.392-11.749,10.392ZM28.758,152.138a80.822,80.822,0,0,1,0-21.052h33.71a79.413,79.413,0,0,1,.688,10.526,79.413,79.413,0,0,1-.688,10.526ZM7.017,141.612a38.493,38.493,0,0,1,1.459-10.526H21.688a87.519,87.519,0,0,0,0,21.052H8.476a38.493,38.493,0,0,1-1.459-10.526Zm38.6-38.6c4.163,0,8.446,3.788,11.748,10.392a50.676,50.676,0,0,1,3.8,10.66h-31.1a50.676,50.676,0,0,1,3.8-10.66C37.167,106.805,41.449,103.017,45.612,103.017Zm23.925,28.069H82.748a38.7,38.7,0,0,1,0,21.052H69.537a86.552,86.552,0,0,0,.636-10.526A86.55,86.55,0,0,0,69.537,131.087Zm10.447-7.017H68.353a59.152,59.152,0,0,0-4.715-13.8,40.865,40.865,0,0,0-2.186-3.853,38.846,38.846,0,0,1,18.533,17.651Zm-50.21-17.651a40.864,40.864,0,0,0-2.186,3.853,59.065,59.065,0,0,0-4.715,13.8H11.24a38.846,38.846,0,0,1,18.535-17.651ZM11.24,159.156H22.872a59.152,59.152,0,0,0,4.715,13.8,40.867,40.867,0,0,0,2.186,3.853A38.846,38.846,0,0,1,11.24,159.156ZM61.45,176.806a40.867,40.867,0,0,0,2.186-3.853,59.065,59.065,0,0,0,4.715-13.8H79.984A38.846,38.846,0,0,1,61.45,176.806Z" transform="translate(0 -74.948)" fill="#347e79"/>
    <path id="Path_13541" data-name="Path 13541" d="M145.543,0A17.563,17.563,0,0,0,128,17.543c0,5.25,2.659,10.9,7.9,16.8a56.906,56.906,0,0,0,7.535,7.055,3.509,3.509,0,0,0,4.21,0,56.906,56.906,0,0,0,7.535-7.055c5.244-5.9,7.9-11.554,7.9-16.8A17.563,17.563,0,0,0,145.543,0Z" transform="translate(-99.931 0)" fill="url(#linear-gradient)"/>
    <circle id="Ellipse_51" data-name="Ellipse 51" cx="10.5" cy="10.5" r="10.5" transform="translate(35 6.823)" fill="#f5ef9d"/>
    <g id="Group_8812" data-name="Group 8812" transform="translate(77.19)">
      <path id="Path_13542" data-name="Path 13542" d="M355.509,64H352v7.017h3.509a10.526,10.526,0,0,1,10.526,10.526v3.509h7.017V81.543A17.543,17.543,0,0,0,355.509,64Z" transform="translate(-352 -49.965)" fill="url(#linear-gradient-2)"/>
      <path id="Path_13543" data-name="Path 13543" d="M377.837,9.248A31.372,31.372,0,0,0,355.509,0H352V7.017h3.509a24.561,24.561,0,0,1,24.561,24.561v3.509h7.017V31.577a31.372,31.372,0,0,0-9.249-22.329Z" transform="translate(-352 0.001)" fill="url(#linear-gradient-3)"/>
    </g>
  </g>
</svg>
