<svg xmlns="http://www.w3.org/2000/svg" width="36.4" height="30.333" viewBox="0 0 36.4 30.333">
  <g id="arrow-forward" transform="translate(36.4 32.333) rotate(180)">
    <path id="Path_13473" data-name="Path 13473" d="M19.167,32.333A15.167,15.167,0,1,1,34.333,17.167,15.167,15.167,0,0,1,19.167,32.333Z" transform="translate(2.067)" fill="#1d2f46" opacity="0.5"/>
    <path id="Path_13474" data-name="Path 13474" d="M22.306,7.444l6.067,6.067a1.512,1.512,0,0,1,.121.137l-.121-.137a1.535,1.535,0,0,1,.147.17q.04.055.076.113c.011.018.022.037.032.056s.032.061.047.093.024.052.034.079.023.06.033.09.014.046.021.069.017.066.024.1.01.053.014.079.008.063.011.1,0,.053,0,.08,0,.033,0,.05v.049c0,.027,0,.055,0,.082l.006-.131a1.542,1.542,0,0,1-.017.226c0,.026-.009.052-.014.078s-.015.066-.024.1-.014.047-.021.07-.021.06-.032.089-.022.053-.034.079-.03.062-.047.093-.021.037-.032.055q-.036.058-.076.113l-.025.033-.01.013-.111.124-6.067,6.067a1.517,1.517,0,0,1-2.145-2.145L23.639,16.1l-22.122,0a1.517,1.517,0,0,1,0-3.033l22.119,0L20.161,9.589a1.517,1.517,0,0,1,2.145-2.145Z" transform="translate(0 2.583)" fill="#1d2f46"/>
  </g>
</svg>
