<svg xmlns="http://www.w3.org/2000/svg" width="31.285" height="28.157" viewBox="0 0 31.285 28.157">
  <g id="Iconly_Bulk_Message" data-name="Iconly/Bulk/Message" transform="translate(-2 -3)">
    <g id="Message" transform="translate(2 3)">
      <path id="Path_34208" d="M31.285,7.9V20.253a7.88,7.88,0,0,1-7.87,7.9H7.912A7.894,7.894,0,0,1,0,20.267V7.9A7.758,7.758,0,0,1,.487,5.209,7.9,7.9,0,0,1,7.912,0H23.373A7.9,7.9,0,0,1,30.84,5.306,7.245,7.245,0,0,1,31.285,7.9Z" transform="translate(0 0)" fill="#347e79" opacity="0.4"/>
      <path id="Path_34209" d="M30.664,5.32l-.153.125c-2.878,2.236-12.194,9.724-12.194,9.724a4.411,4.411,0,0,1-5.562,0S3.5,7.7.617,5.459L.311,5.223A7.9,7.9,0,0,1,7.736,0H23.2A7.9,7.9,0,0,1,30.664,5.32Z" transform="translate(0.176 0)" fill="#347e79"/>
    </g>
  </g>
</svg>
