<svg id="linkedin" xmlns="http://www.w3.org/2000/svg" width="28.157" height="28.157" viewBox="0 0 28.157 28.157">
  <path id="Path_12440" data-name="Path 12440" d="M2,6.224A4.224,4.224,0,0,1,6.224,2h19.71a4.224,4.224,0,0,1,4.224,4.224v19.71a4.223,4.223,0,0,1-4.224,4.224H6.224A4.224,4.224,0,0,1,2,25.933Z" transform="translate(-2 -2)" fill="#347e79" opacity="0.25"/>
  <path id="Path_12441" data-name="Path 12441" d="M7.408,8.816A1.408,1.408,0,1,0,6,7.408,1.408,1.408,0,0,0,7.408,8.816Z" transform="translate(-0.369 -0.369)" fill="#347e79"/>
  <path id="Path_12442" data-name="Path 12442" d="M7.408,10A1.408,1.408,0,0,0,6,11.408v8.447a1.408,1.408,0,0,0,2.816,0V11.408A1.408,1.408,0,0,0,7.408,10Z" transform="translate(-0.369 1.263)" fill="#347e79"/>
  <path id="Path_12443" data-name="Path 12443" d="M15.631,12.816a2.816,2.816,0,0,0-2.816,2.816v4.224a1.408,1.408,0,0,1-2.816,0V11.408a1.408,1.408,0,0,1,2.691-.58,5.633,5.633,0,0,1,8.572,4.8v4.224a1.408,1.408,0,0,1-2.816,0V15.631A2.816,2.816,0,0,0,15.631,12.816Z" transform="translate(1.263 1.263)" fill="#347e79"/>
</svg>
