<svg id="Group_8869" data-name="Group 8869" xmlns="http://www.w3.org/2000/svg" xmlns:xlink="http://www.w3.org/1999/xlink" width="190.948" height="40.41" viewBox="0 0 190.948 40.41">
  <defs>
    <clipPath id="clip-path">
      <rect id="Rectangle_3090" data-name="Rectangle 3090" width="190.947" height="40.41" fill="none"/>
    </clipPath>
  </defs>
  <g id="Group_8869-2" data-name="Group 8869" clip-path="url(#clip-path)">
    <path id="Path_13639" data-name="Path 13639" d="M92.521,39.484a3,3,0,0,1-1.206-2.447V4.255A4.11,4.11,0,0,1,95.067.106a4.02,4.02,0,0,1,4.287,4.01V36.442c0,3.12-3.554,5.409-6.833,3.042" transform="translate(-48.135 -0.051)" fill="#3f8f8b"/>
    <path id="Path_13640" data-name="Path 13640" d="M3.752,40.369A4.111,4.111,0,0,1,0,36.221V3.445A3.005,3.005,0,0,1,1.206,1C4.486-1.368,8.039.921,8.039,4.04V36.358a4.02,4.02,0,0,1-4.287,4.011" transform="translate(0 -0.011)" fill="#4daaa7"/>
    <path id="Path_13641" data-name="Path 13641" d="M315.187,39.429a3,3,0,0,1-1.206-2.447V3.5a3,3,0,0,1,1.206-2.447c3.279-2.367,6.833-.078,6.833,3.042V36.388c0,3.12-3.554,5.409-6.833,3.042" transform="translate(-165.508 -0.039)" fill="#4daaa7"/>
    <path id="Path_13642" data-name="Path 13642" d="M25.578,40.378a4.021,4.021,0,0,1-3.809-2.738L14.5,19.063a3.508,3.508,0,0,1,0-2.812l7.09-13.945c1.344-2.814,5.536-3.348,7.476.2A3,3,0,0,1,29.1,5.234L22.926,18.161l6.461,16.914a4.023,4.023,0,0,1-3.81,5.3" transform="translate(-7.489 -0.01)" fill="#4daaa7"/>
    <path id="Path_13643" data-name="Path 13643" d="M124.269,40.449A12.261,12.261,0,0,1,112.022,28.2V12.321a12.247,12.247,0,1,1,24.493,0V28.2a12.261,12.261,0,0,1-12.246,12.247m0-32.336a4.213,4.213,0,0,0-4.208,4.208V28.2a4.208,4.208,0,1,0,8.416,0V12.321a4.213,4.213,0,0,0-4.208-4.208" transform="translate(-59.05 -0.039)" fill="#4daaa7"/>
    <path id="Path_13644" data-name="Path 13644" d="M201.76,1.052A3,3,0,0,0,200.554,3.5V28.2a4.213,4.213,0,0,1-4.5,4.2,4.307,4.307,0,0,1-3.92-4.347V4.093A4.019,4.019,0,0,0,188.02.076a4.767,4.767,0,0,0-2.781.939A3.035,3.035,0,0,0,183.981,3.5V28.2a4.212,4.212,0,0,1-4.5,4.2,4.308,4.308,0,0,1-3.92-4.347V4.093c0-3.12-3.553-5.409-6.833-3.042A3.005,3.005,0,0,0,167.526,3.5V27.934a12.423,12.423,0,0,0,11.748,12.505,12.174,12.174,0,0,0,7.126-1.945,3.121,3.121,0,0,1,3.4.012,11.919,11.919,0,0,0,6.175,1.937A12.26,12.26,0,0,0,208.593,28.2V4.093c0-3.12-3.554-5.409-6.833-3.042" transform="translate(-88.308 -0.039)" fill="#4daaa7"/>
    <path id="Path_13645" data-name="Path 13645" d="M265.38,40.419h-.554a6.754,6.754,0,0,1-6.746-6.746V6.843A6.754,6.754,0,0,1,264.825.1h.554a17.4,17.4,0,0,1,17.38,17.38v5.562a17.4,17.4,0,0,1-17.38,17.38m.738-29.718V29.815a2.021,2.021,0,0,0,2.769,1.882,9.356,9.356,0,0,0,5.834-8.658V17.477a9.355,9.355,0,0,0-5.834-8.658,2.021,2.021,0,0,0-2.769,1.883" transform="translate(-136.041 -0.051)" fill="#4daaa7"/>
    <path id="Path_13646" data-name="Path 13646" d="M340.778,74.308a3.045,3.045,0,1,1-3.045-3.045,3.045,3.045,0,0,1,3.045,3.045" transform="translate(-176.423 -37.565)" fill="#333"/>
    <path id="Path_13647" data-name="Path 13647" d="M394.923,64.2a2.75,2.75,0,0,1-2.749-2.749V49.61a2.749,2.749,0,0,1,5.5,0V61.446a2.75,2.75,0,0,1-2.749,2.749" transform="translate(-206.726 -24.702)" fill="#333"/>
    <path id="Path_13648" data-name="Path 13648" d="M394.921,36.337a2.923,2.923,0,0,1-.534-.052,3.24,3.24,0,0,1-.515-.156,2.841,2.841,0,0,1-.473-.255,2.578,2.578,0,0,1-.761-.761,2.841,2.841,0,0,1-.255-.473,3.238,3.238,0,0,1-.156-.515,2.882,2.882,0,0,1-.052-.534,2.972,2.972,0,0,1,.052-.539,3.238,3.238,0,0,1,.156-.515,2.841,2.841,0,0,1,.255-.473,2.655,2.655,0,0,1,.34-.421,2.751,2.751,0,0,1,3.887,0,2.681,2.681,0,0,1,.345.421,2.512,2.512,0,0,1,.251.473,2.461,2.461,0,0,1,.156.515,2.609,2.609,0,0,1,.057.539,2.531,2.531,0,0,1-.057.534,2.461,2.461,0,0,1-.156.515,2.512,2.512,0,0,1-.251.473,2.681,2.681,0,0,1-.345.421,2.769,2.769,0,0,1-1.943.8" transform="translate(-206.726 -16.256)" fill="#333"/>
    <path id="Path_13649" data-name="Path 13649" d="M368.836,54.956c0-.139-.014-.273-.021-.41v-5.2a2.824,2.824,0,0,0-2.488-2.847,2.737,2.737,0,0,0-1.3.192,2.381,2.381,0,0,1-1.782.068,8.76,8.76,0,0,0-3.505-.6,8.8,8.8,0,0,0,.292,17.605,8.684,8.684,0,0,0,2.8-.465,2.446,2.446,0,0,1,1.943.2,2.733,2.733,0,0,0,1.345.32,2.828,2.828,0,0,0,2.693-2.867V55.366c.007-.137.021-.271.021-.41m-8.8,3.306a3.306,3.306,0,1,1,3.285-3.668v.723a3.309,3.309,0,0,1-3.285,2.944" transform="translate(-185.141 -24.327)" fill="#333"/>
    <path id="Path_13650" data-name="Path 13650" d="M3.361,72.6H6.185v.353h.354v2.472H6.185v.353H3.361v-.353H3.008V72.95h.353Zm2.118.353H3.714v1.766h.353v-.353H4.42v-.353h.353v-.353h.353V73.3h.353ZM4.067,75.421H5.832V73.656H5.479v.353H5.126v.353H4.773v.353H4.42v.353H4.067Z" transform="translate(-1.586 -38.268)" fill="#fff"/>
    <path id="Path_13651" data-name="Path 13651" d="M11.222,72.6h1.412v3.178h-.706V72.95h-.706Z" transform="translate(-5.915 -38.268)" fill="#fff"/>
    <path id="Path_13652" data-name="Path 13652" d="M69.267,39.462a3.879,3.879,0,0,1-1.007,2.577,1.216,1.216,0,0,1-.156.156,7.125,7.125,0,0,1-3.83,1.111h-.18c-.085,0-.166,0-.232,0,.194,0,1.787,0,1.844.014-.118.014-1.343.038-1.523.09-3.9,1.059-5.287,5.112-5.287,8.55V55.19a3.873,3.873,0,1,1-7.746,0V51.965a17.549,17.549,0,0,1,4.1-11.722.331.331,0,0,1,.038-.047,14.009,14.009,0,0,1,6.861-4.256,10.273,10.273,0,0,1,1.267-.274h.113c.208,0,.378,0,.52,0h.08c.184,0,1.409,0,1.556-.009h.019a3.876,3.876,0,0,1,3.551,3.66c0,.047,0,.095,0,.142" transform="translate(-26.963 -18.797)" fill="#333"/>
    <path id="Path_13653" data-name="Path 13653" d="M77.616,52.15c0,.024-.014.043-.076.043s.014-.019.076-.043" transform="translate(-40.864 -27.49)" fill="#333"/>
    <path id="Path_13654" data-name="Path 13654" d="M77.721,52.1a.072.072,0,0,1,.028-.047l.033,0c.052,0,0,.024-.061.043" transform="translate(-40.969 -27.437)" fill="#333"/>
    <path id="Path_13655" data-name="Path 13655" d="M58.9,12.309a4.607,4.607,0,0,0,4.525,4.558h.113c.208,0,.378,0,.52,0h.08c.184,0,1.409,0,1.556-.009h.019a3.876,3.876,0,0,1,3.551,3.66c0,.047,0,.095,0,.142v.057a3.873,3.873,0,0,1-1.007,2.606,1.216,1.216,0,0,1-.156.156,3.828,3.828,0,0,1-2.227,1.026c-.057,0-.113.014-.17.019-.3.033-1.66.057-1.877.071h-.024a.145.145,0,0,0-.061.014h-.208a12.382,12.382,0,0,1-8.242-3.13.285.285,0,0,1-.038-.038A12.281,12.281,0,0,1,63.536,0c.7,0,.388.033,1.518.061l.425.024a3.874,3.874,0,1,1-.17,7.746l-.453-.024c-.969-.024-.709-.061-1.319-.061A4.607,4.607,0,0,0,58.9,12.309" transform="translate(-26.963)" fill="#333"/>
  </g>
</svg>
