<svg xmlns="http://www.w3.org/2000/svg" xmlns:xlink="http://www.w3.org/1999/xlink" width="159.372" height="34.446" viewBox="0 0 159.372 34.446">
  <defs>
    <clipPath id="clip-path">
      <rect id="Rectangle_3069" data-name="Rectangle 3069" width="159.372" height="34.445" transform="translate(0 0)" fill="none"/>
    </clipPath>
  </defs>
  <g id="Group_8808" data-name="Group 8808" transform="translate(0 0)">
    <g id="Group_8808-2" data-name="Group 8808" transform="translate(0 0)" clip-path="url(#clip-path)">
      <path id="Path_13475" data-name="Path 13475" d="M69.407,28.17c-.223.223-.422.438-.614.645a18.724,18.724,0,0,0-7.122,14.7c0,.414.016.821.048,1.227l-.438,1.2-.175.486L60.468,48.2a4.874,4.874,0,0,1-.263.542,3.888,3.888,0,0,1-.279.422,3.085,3.085,0,0,1-.287.343,3.806,3.806,0,0,1-2.78,1.211h-.04c-.359,0-.064-7.95-.056-8.245l.008.016,1.37-3.784,1.824-5.035c.016-.071.04-.127.056-.183l.008-.008c.016-.048.032-.1.048-.136a.45.45,0,0,0,.032-.064c.295-.8.605-1.641,1-2.5.239-.534.5-1.067.8-1.617a4.733,4.733,0,0,1,7.5-.988" transform="translate(-34.519 -16.307)" fill="#272727"/>
      <path id="Path_13476" data-name="Path 13476" d="M20.305,47.172H13.741L1.815,34.465,12.977,21.951a3.2,3.2,0,0,1,4.511-.259l1.184,1.055L8.292,34.386Z" transform="translate(-1.106 -12.727)" fill="#272727"/>
      <path id="Path_13477" data-name="Path 13477" d="M219.668,42.027h-.008a1.066,1.066,0,0,1,.055-.136c-.016.04-.032.088-.048.136" transform="translate(-133.867 -25.53)" fill="#72b8ab"/>
      <path id="Path_13478" data-name="Path 13478" d="M60.527,21.589a4.689,4.689,0,0,0-4.692,4.684V47.6h5.346V21.589Z" transform="translate(-34.028 -13.157)" fill="#272727"/>
      <path id="Path_13479" data-name="Path 13479" d="M321.9,3.034a3.08,3.08,0,0,1-3.221,3.119,3.129,3.129,0,0,1-3.223-2.836,3.226,3.226,0,0,1,6.444-.283m-1.793,7.211h1.046V34.4h-4.963V14.161a3.917,3.917,0,0,1,3.917-3.917" transform="translate(-192.243 -0.003)" fill="#272727"/>
      <path id="Path_13480" data-name="Path 13480" d="M3.917,0H4.963V34.278H0V3.921A3.917,3.917,0,0,1,3.917,0" transform="translate(0 -0.003)" fill="#272727"/>
      <path id="Path_13481" data-name="Path 13481" d="M403.225,1.48a1.547,1.547,0,0,1-3.092,0,1.549,1.549,0,0,1,3.092,0m-.839,3.765h.481V16.811h-2.376V7.14a1.9,1.9,0,0,1,1.9-1.9" transform="translate(-243.853 -0.018)" fill="#347e79"/>
      <path id="Path_13482" data-name="Path 13482" d="M369.161,25.257a5.921,5.921,0,0,1-5.994-6.035,5.994,5.994,0,1,1,11.987,0,5.909,5.909,0,0,1-5.994,6.035m0-2.271a3.585,3.585,0,0,0,3.6-3.764,3.6,3.6,0,1,0-7.193,0,3.585,3.585,0,0,0,3.6,3.764" transform="translate(-221.325 -8.036)" fill="#347e79"/>
      <rect id="Rectangle_3068" data-name="Rectangle 3068" width="2.376" height="6.393" transform="translate(151.39 10.829)" fill="#347e79"/>
      <path id="Path_13483" data-name="Path 13483" d="M94.19,50.7a12.01,12.01,0,1,1,12.01-12.01A12.024,12.024,0,0,1,94.19,50.7m0-19.493a7.483,7.483,0,1,0,7.483,7.483A7.491,7.491,0,0,0,94.19,31.21" transform="translate(-50.083 -16.262)" fill="#272727"/>
      <path id="Path_13484" data-name="Path 13484" d="M263.027,21.743c0,.219,0,.437-.016.652v.094h0a12.681,12.681,0,0,1-25.34-.746,12.108,12.108,0,0,1,3.488-8.729l3.488,3.265a7.362,7.362,0,0,0-2.2,5.464,7.9,7.9,0,1,0,15.8,0h.016V3.878A3.88,3.88,0,0,1,262.14,0h.871V21.743Z" transform="translate(-144.842 0)" fill="#272727"/>
      <path id="Path_13485" data-name="Path 13485" d="M264.742,22.76a8.313,8.313,0,0,0-8.084-.865,2.35,2.35,0,0,1-2.668-.482,2.245,2.245,0,0,1,.057-3.1l6.7-6.766,1.017,1.008a2.551,2.551,0,0,1,.017,3.608l-1.094,1.1a12.187,12.187,0,0,1,6.364,2.252Z" transform="translate(-154.427 -7.035)" fill="#72b8ab"/>
      <path id="Path_13486" data-name="Path 13486" d="M162.7,42.027h.008a.961.961,0,0,0-.055-.136c.016.04.032.088.048.136" transform="translate(-99.124 -25.53)" fill="#72b8ab"/>
      <path id="Path_13487" data-name="Path 13487" d="M214.6,42.027H214.6a.961.961,0,0,1,.055-.136c-.016.04-.032.088-.048.136" transform="translate(-130.781 -25.53)" fill="#72b8ab"/>
      <path id="Path_13488" data-name="Path 13488" d="M162.083,85.24a3.669,3.669,0,0,1-.672-.562c-.051-.055-.1-.109-.145-.168a4.13,4.13,0,0,0,.816.73" transform="translate(-98.281 -51.503)" fill="#347e79"/>
      <path id="Path_13489" data-name="Path 13489" d="M163.837,86.68a4.041,4.041,0,0,0,.6.285,3.391,3.391,0,0,1-.6-.285" transform="translate(-99.847 -52.826)" fill="#347e79"/>
      <path id="Path_13490" data-name="Path 13490" d="M158.837,79.65l.27.746s-.008-.008-.008-.012Z" transform="translate(-96.8 -48.541)" fill="#347e79"/>
      <path id="Path_13491" data-name="Path 13491" d="M159.966,82.534s0,.008,0,.012-.008-.012-.012-.02l0,0c-.016-.031-.031-.059-.047-.09l0,0c-.02-.043-.043-.086-.066-.129a.082.082,0,0,1,.016.023c.012.02.02.039.031.059a.118.118,0,0,0,.023.043c.02.039.039.074.059.109" transform="translate(-97.41 -50.156)" fill="#347e79"/>
      <path id="Path_13492" data-name="Path 13492" d="M160.462,83.364c.043.059.09.117.137.176a1.835,1.835,0,0,1-.137-.168,4.96,4.96,0,0,1-.277-.426.03.03,0,0,1-.008-.016l.008.008a4.96,4.96,0,0,0,.277.426" transform="translate(-97.617 -50.54)" fill="#347e79"/>
      <path id="Path_13493" data-name="Path 13493" d="M160.657,44.1l.246.672-.012.031c-.055-.176-.113-.352-.176-.523-.016-.066-.043-.121-.059-.18" transform="translate(-97.909 -26.876)" fill="#347e79"/>
      <path id="Path_13494" data-name="Path 13494" d="M163.349,51.425l.945,2.621-1.383-3.82-.844-2.32-.781-2.117.012-.02.359.988,1.269,3.5Z" transform="translate(-98.293 -27.894)" fill="#347e79"/>
      <path id="Path_13495" data-name="Path 13495" d="M169.009,66.943a.062.062,0,0,1,0,.016l0-.012V66.94l0-.012,0-.008Z" transform="translate(-102.992 -40.783)" fill="#347e79"/>
      <path id="Path_13496" data-name="Path 13496" d="M217.428,84.848a3.736,3.736,0,0,0,.324-.338c-.047.059-.1.113-.145.168s-.119.114-.179.17" transform="translate(-132.507 -51.503)" fill="#347e79"/>
      <path id="Path_13497" data-name="Path 13497" d="M217.339,85.409l.035-.033-.035.033" transform="translate(-132.453 -52.031)" fill="#347e79"/>
      <path id="Path_13498" data-name="Path 13498" d="M214.147,86.222a3.912,3.912,0,0,0,1.247-.762,3.783,3.783,0,0,1-1.247.762" transform="translate(-130.508 -52.082)" fill="#347e79"/>
      <path id="Path_13499" data-name="Path 13499" d="M210.509,66.928l0,.012v.008l0,.012a.062.062,0,0,1,0-.016l.008-.023Z" transform="translate(-128.283 -40.783)" fill="#347e79"/>
      <path id="Path_13500" data-name="Path 13500" d="M217.01,45.78l.008.016-.781,2.117Z" transform="translate(-131.781 -27.9)" fill="#347e79"/>
      <path id="Path_13501" data-name="Path 13501" d="M218.253,44.807l-.016-.035.246-.672c-.016.059-.039.113-.055.18q-.094.264-.176.527" transform="translate(-133 -26.876)" fill="#347e79"/>
      <path id="Path_13502" data-name="Path 13502" d="M218.681,82.938l.008-.008a.03.03,0,0,1-.008.016,4.956,4.956,0,0,1-.277.426,1.833,1.833,0,0,1-.137.168c.047-.059.094-.117.137-.176a4.956,4.956,0,0,0,.277-.426" transform="translate(-133.019 -50.54)" fill="#347e79"/>
      <path id="Path_13503" data-name="Path 13503" d="M219.464,82.317a.1.1,0,0,1,.016-.027v0c-.023.043-.047.086-.066.129a0,0,0,0,0,0,0c-.016.031-.031.059-.047.09l0,0c0,.008-.008.012-.012.02a.014.014,0,0,1,0-.012c.02-.035.039-.07.059-.109a.117.117,0,0,0,.023-.043.427.427,0,0,0,.031-.059" transform="translate(-133.677 -50.15)" fill="#347e79"/>
      <path id="Path_13504" data-name="Path 13504" d="M220.27,79.65l-.266.734s0,.008-.008.012Z" transform="translate(-134.073 -48.541)" fill="#347e79"/>
      <path id="Path_13505" data-name="Path 13505" d="M183.291,51.028a4.957,4.957,0,0,1-.277.426c-.043.059-.09.117-.137.176,0,0-.008,0,0,.008-.051.059-.1.117-.156.176s-.133.133-.2.2c-.09.078-.18.156-.273.227-.008.008-.02.016-.027.023-.031.02-.062.043-.094.066h0a0,0,0,0,1,0,0,.217.217,0,0,0-.031.02v0l-.039.023c-.035.023-.07.047-.105.066a.678.678,0,0,1-.1.059c-.008.008-.02.012-.027.02s-.023.012-.035.02h0v0a.132.132,0,0,0-.047.023l-.047.023c-.035.016-.066.035-.1.051l-.023.012-.051.023-.23.094a3.429,3.429,0,0,1-.355.113c-.051.012-.1.023-.152.039a.2.2,0,0,0-.047.008c-.055.012-.109.02-.164.031s-.1.016-.152.02-.1.012-.152.016a2.652,2.652,0,0,1-.3.016h-.031a3.826,3.826,0,0,1-3.6-2.449l-4.558-11.53-4.558,11.53a3.675,3.675,0,0,1-.219.469v0q-.047.088-.105.176a.119.119,0,0,1-.027.039v0c-.047.07-.1.141-.145.207a1.8,1.8,0,0,1-.156.2v0c-.055.062-.109.125-.168.184-.117.117-.242.23-.371.336a3.863,3.863,0,0,1-2.414.832h-.035A2.676,2.676,0,0,1,163.24,53c-.051,0-.1-.008-.152-.016s-.094-.012-.145-.02l-.187-.035-.191-.047a3.513,3.513,0,0,1-.344-.109,4.041,4.041,0,0,1-.6-.285l-.187-.117a4.129,4.129,0,0,1-.816-.73s0,0,0-.008c-.047-.059-.094-.117-.137-.176a4.961,4.961,0,0,1-.277-.426c1.23,1.406,3.324-5.808,3.445-6.218l0,.008,4.765-11.994a3.546,3.546,0,0,1,3.328-2.254h.016a3.546,3.546,0,0,1,3.328,2.254l4.761,11.994,0-.008c.121.41,2.218,7.624,3.445,6.218" transform="translate(-97.629 -18.63)" fill="#72b8ab"/>
      <path id="Path_13506" data-name="Path 13506" d="M160.657,44.1l.246.672-.012.031c-.055-.176-.113-.352-.176-.523-.016-.066-.043-.121-.059-.18" transform="translate(-97.909 -26.876)" fill="#72b8ab"/>
      <path id="Path_13507" data-name="Path 13507" d="M166.833,60.992l0,.008-1.383-3.82.437,1.2Z" transform="translate(-100.828 -34.847)" fill="#72b8ab"/>
      <path id="Path_13508" data-name="Path 13508" d="M177.33,82.97q-.047.088-.105.176a.119.119,0,0,1-.027.039c.047-.07.09-.141.133-.215" transform="translate(-107.989 -50.565)" fill="#72b8ab"/>
      <path id="Path_13509" data-name="Path 13509" d="M210.527,61.047,211.9,57.27l-1.371,3.785Z" transform="translate(-128.301 -34.902)" fill="#72b8ab"/>
      <path id="Path_13510" data-name="Path 13510" d="M218.237,44.772l.246-.672c-.016.059-.039.113-.055.18q-.094.264-.176.527Z" transform="translate(-133 -26.876)" fill="#72b8ab"/>
      <path id="Path_13511" data-name="Path 13511" d="M219.663,82.29v0a.082.082,0,0,1-.016.023.1.1,0,0,1,.016-.027" transform="translate(-133.86 -50.15)" fill="#72b8ab"/>
      <path id="Path_13512" data-name="Path 13512" d="M223.158,28.1a16.847,16.847,0,0,0-4.273,7.136l-.074.187-2,5.519-1.785,4.937L215,45.95l-.516,1.422-.273.746c0,.012-.008.02-.012.031-.016.039-.031.078-.047.113s-.035.074-.051.109c0,.012-.012.02-.012.031v0a.082.082,0,0,0-.016.023.427.427,0,0,1-.031.059.117.117,0,0,1-.023.043c-.02.039-.039.074-.059.109a.014.014,0,0,0,0,.012l-.008.008c-1.226,1.406-3.324-5.808-3.445-6.218v0l0-.012v-.008l0-.012,0,.008,1.371-3.785.012-.035.844-2.32.781-2.117.016.035q.082-.264.176-.527c.016-.066.039-.121.055-.18l-.246.672-.008-.016.2-.551c.016-.066.039-.121.055-.18l.008-.008c.016-.051.035-.1.051-.141a.538.538,0,0,1,.023-.062,29.631,29.631,0,0,1,1.8-4.121,4.743,4.743,0,0,1,7.5-.984" transform="translate(-128.289 -16.263)" fill="#347e79"/>
      <path id="Path_13513" data-name="Path 13513" d="M210.509,66.928l0,.012v.008l0,.012a.062.062,0,0,1,0-.016l.008-.023Z" transform="translate(-128.283 -40.783)" fill="#347e79"/>
      <path id="Path_13514" data-name="Path 13514" d="M215.694,45.774l.008.016-.781,2.117-.844,2.32,1.613-4.456Z" transform="translate(-130.465 -27.894)" fill="#347e79"/>
      <path id="Path_13515" data-name="Path 13515" d="M219.416,82.62a0,0,0,1,1,0,.008c-.016.031-.031.059-.047.09l0,0-.008.008c.02-.035.039-.07.059-.109" transform="translate(-133.683 -50.351)" fill="#347e79"/>
      <path id="Path_13516" data-name="Path 13516" d="M220.27,79.65l-.266.734s0,.008-.008.012Z" transform="translate(-134.073 -48.541)" fill="#347e79"/>
      <path id="Path_13517" data-name="Path 13517" d="M149.278,42.439v0c-.121.41-2.215,7.624-3.445,6.218l-.008-.008s0-.008,0-.012c-.02-.035-.039-.07-.059-.109a.117.117,0,0,1-.023-.043c-.012-.02-.02-.039-.031-.059a.082.082,0,0,0-.016-.023v0c0-.012-.008-.02-.012-.031-.016-.035-.035-.07-.051-.109s-.031-.074-.047-.113c0-.012-.012-.02-.012-.031l-.269-.746-.543-1.492v-.008l-1.789-4.933-2-5.519-.074-.187a16.807,16.807,0,0,0-4.273-7.136,4.743,4.743,0,0,1,7.5.984,29.174,29.174,0,0,1,1.8,4.121.493.493,0,0,1,.027.062q.023.064.047.141l.008.008c.016.059.043.113.059.18l.2.547-.012.02-.246-.672c.016.059.043.113.059.18.062.172.121.348.176.523l.012-.031.781,2.117.844,2.32,1.383,3.82,0-.008,0,.012v.008Z" transform="translate(-83.265 -16.263)" fill="#347e79"/>
      <path id="Path_13518" data-name="Path 13518" d="M157.99,77.322l.269.746s-.008-.008-.008-.012l-.8-2.226Z" transform="translate(-95.953 -46.213)" fill="#347e79"/>
      <path id="Path_13519" data-name="Path 13519" d="M160.011,82.62c.02.039.039.074.059.109l-.008-.008,0,0c-.016-.031-.031-.059-.047-.09l0,0Z" transform="translate(-97.513 -50.351)" fill="#347e79"/>
      <path id="Path_13520" data-name="Path 13520" d="M161.658,46.758l1.254,3.468-.844-2.32-.781-2.117.012-.02Z" transform="translate(-98.293 -27.894)" fill="#347e79"/>
      <path id="Path_13521" data-name="Path 13521" d="M169.009,66.943a.062.062,0,0,1,0,.016l0-.012V66.94l0-.012,0-.008Z" transform="translate(-102.992 -40.783)" fill="#347e79"/>
      <path id="Path_13522" data-name="Path 13522" d="M354.773,39.573a1.549,1.549,0,1,1-1.556-1.451,1.455,1.455,0,0,1,1.556,1.451" transform="translate(-214.325 -23.233)" fill="#347e79"/>
    </g>
  </g>
</svg>
