<svg id="mail" xmlns="http://www.w3.org/2000/svg" width="76.428" height="72.609" viewBox="0 0 76.428 72.609">
  <path id="Path_12435" data-name="Path 12435" d="M51.828,8V23.276a3.819,3.819,0,1,1-7.638,0V8H6A15.276,15.276,0,0,1,21.276,23.276V53.828a3.437,3.437,0,0,1-3.819,3.819H63.285A3.437,3.437,0,0,0,67.1,53.828V23.276A15.276,15.276,0,0,0,51.828,8Z" transform="translate(9.3 14.938)" fill="#347e79"/>
  <path id="Path_12436" data-name="Path 12436" d="M78.4,5.837V9.656a3.437,3.437,0,0,1-3.819,3.819H63.122V40.208a3.819,3.819,0,0,1-7.638,0V5.837A3.437,3.437,0,0,1,59.3,2.018H74.579A3.437,3.437,0,0,1,78.4,5.837Zm-61.1,19.1A15.276,15.276,0,0,0,2.018,40.208V70.76a3.437,3.437,0,0,0,3.819,3.819H28.751A3.437,3.437,0,0,0,32.57,70.76V40.208A15.276,15.276,0,0,0,17.294,24.932Z" transform="translate(-1.994 -1.994)" fill="#347e79" opacity="0.4"/>
</svg>
