<svg xmlns="http://www.w3.org/2000/svg" width="427.482" height="639.064" viewBox="0 0 427.482 639.064">
  <g id="Group_8871" data-name="Group 8871" transform="translate(-1256.565 -1084.324)">
    <path id="Path_13656" data-name="Path 13656" d="M110.384,622.966C98.09,614.1,91.315,599.432,91.315,584.273V65.841c0-33.861,25.545-63.422,59.332-65.606a63.571,63.571,0,0,1,67.8,63.422V574.866c0,49.334-56.2,85.535-108.06,48.1" transform="translate(1465.603 1084.956)" fill="#3f8f8b"/>
    <path id="Path_13657" data-name="Path 13657" d="M337.64,95.785a61.348,61.348,0,0,1-15.929,40.756,19.231,19.231,0,0,1-2.468,2.468c-10.993,10.843-43.9,17.574-60.573,17.574h-2.842c-1.346,0-2.617,0-3.664.075,3.066,0,28.268.075,29.165.224-1.87.224-21.238.6-24.08,1.421-61.62,16.751-83.606,80.839-83.606,135.205v51a61.246,61.246,0,1,1-122.493,0v-51c0-73.81,23.781-138.72,64.911-185.384a5.237,5.237,0,0,1,.6-.748,221.549,221.549,0,0,1,108.508-67.3,162.465,162.465,0,0,1,20.042-4.337H247c3.29,0,5.982.075,8.226.075H256.5c2.917.075,22.285,0,24.6-.15h.3a61.3,61.3,0,0,1,56.161,57.881c0,.748.075,1.5.075,2.243" transform="translate(1205.414 1315.336)" fill="#333"/>
    <path id="Path_13658" data-name="Path 13658" d="M173.644,194.657c0,39.111,31.932,71.117,71.566,72.09H247c3.29,0,5.982.075,8.226.075H256.5c2.917.075,22.285,0,24.6-.15a1.988,1.988,0,0,0,.3,0,61.3,61.3,0,0,1,56.161,57.881c0,.748.075,1.5.075,2.243v.9a61.251,61.251,0,0,1-15.929,41.2,19.229,19.229,0,0,1-2.468,2.468,60.537,60.537,0,0,1-35.222,16.228c-.9.075-1.795.224-2.692.3-4.786.523-26.248.9-29.688,1.122h-.374a2.3,2.3,0,0,0-.972.224H247A195.816,195.816,0,0,1,116.66,339.734a4.51,4.51,0,0,1-.6-.6A193.529,193.529,0,0,1,51.151,194.657C51.151,87.27,139.02,0,247,0c11.142,0,6.132.523,24,.972l6.715.374a61.261,61.261,0,1,1-2.692,122.493l-7.164-.374c-15.33-.374-11.217-.972-20.864-.972-40.457,0-73.361,32.381-73.361,72.164" transform="translate(1205.414 1084.324)" fill="#333"/>
  </g>
</svg>
