<svg xmlns="http://www.w3.org/2000/svg" width="196.9" height="208.466" viewBox="0 0 196.9 208.466">
  <g id="Group_8810" data-name="Group 8810" transform="translate(-130.984 -803.554)">
    <path id="Path_13524" data-name="Path 13524" d="M219.707,42.712h-.047a6.447,6.447,0,0,1,.336-.821c-.095.241-.192.532-.289.821" transform="translate(-87.935 860.743)" fill="#72b8ab"/>
    <path id="Path_13523" data-name="Path 13523" d="M391.237,131.669c0,1.324-.024,2.649-.095,3.95v.568h-.024a76.792,76.792,0,0,1-153.452-4.517c0-20.7,7.1-38.387,21.121-52.862L279.909,98.58c-9.153,9.059-13.292,20.2-13.292,33.089a47.836,47.836,0,1,0,95.671,0h.095V23.486A23.5,23.5,0,0,1,385.869,0h5.274V131.669Z" transform="translate(-63.353 803.554)" fill="#272727"/>
    <path id="Path_13525" data-name="Path 13525" d="M322.1,79.462a50.341,50.341,0,0,0-48.952-5.239c-5.52,2.375-12.1,1.509-16.159-2.916a13.6,13.6,0,0,1,.348-18.791l40.584-40.972,6.161,6.1a15.447,15.447,0,0,1,.1,21.847l-6.625,6.691A73.8,73.8,0,0,1,336.1,59.82Z" transform="translate(-41.881 819.314)" fill="#272727"/>
    <path id="Path_13526" data-name="Path 13526" d="M220.057,82.456a.593.593,0,0,1,.095-.166v.024c-.142.26-.284.52-.4.781a.023.023,0,0,0-.024.024c-.095.189-.189.355-.284.544l-.024.024c-.024.047-.047.071-.071.118a.087.087,0,0,1,.024-.071c.118-.213.237-.426.355-.662a.709.709,0,0,0,.142-.26,2.584,2.584,0,0,0,.189-.355" transform="translate(-88.363 915.894)" fill="#347e79"/>
    <path id="Path_13527" data-name="Path 13527" d="M221.653,79.65,220.044,84.1c0,.024-.024.047-.047.071Z" transform="translate(-87.475 912.29)" fill="#347e79"/>
    <path id="Path_13528" data-name="Path 13528" d="M219.742,82.29v.024a.5.5,0,0,1-.095.142.592.592,0,0,1,.095-.166" transform="translate(-87.953 915.894)" fill="#72b8ab"/>
    <path id="Path_13529" data-name="Path 13529" d="M219.712,82.62a.024.024,0,1,1,0,.047c-.095.189-.189.355-.284.544l-.024.024-.047.047c.118-.213.237-.426.355-.662" transform="translate(-88.349 916.345)" fill="#347e79"/>
    <path id="Path_13530" data-name="Path 13530" d="M221.653,79.65,220.044,84.1c0,.024-.024.047-.047.071Z" transform="translate(-87.475 912.29)" fill="#347e79"/>
  </g>
</svg>
