<svg xmlns="http://www.w3.org/2000/svg" width="396.767" height="538.596" viewBox="0 0 396.767 538.596">
  <g id="Group_8811" data-name="Group 8811" transform="translate(-1279.633 -942.404)">
    <path id="Path_13533" data-name="Path 13533" d="M634.434,340.182c0,3.422-.061,6.844-.245,10.2v1.467h-.061c-6.11,104-92.577,186.743-198.108,186.743-109.381,0-198.353-89.033-198.353-198.414,0-53.469,18.332-99.176,54.568-136.574L346.8,254.694c-23.648,23.4-34.342,52.185-34.342,85.489a123.589,123.589,0,1,0,247.177,0h.245V60.679A60.712,60.712,0,0,1,620.563,0H634.19V340.182Z" transform="translate(1041.965 942.404)" fill="#272727"/>
    <path id="Path_13534" data-name="Path 13534" d="M430.914,187.019a130.063,130.063,0,0,0-126.473-13.535c-14.262,6.135-31.25,3.9-41.748-7.534a35.126,35.126,0,0,1,.9-48.549L368.445,11.544,384.363,27.31a39.909,39.909,0,0,1,.269,56.444l-17.116,17.287a190.668,190.668,0,0,1,99.567,35.228Z" transform="translate(1122.349 1001.399)" fill="#72b8ab"/>
  </g>
</svg>
