<svg xmlns="http://www.w3.org/2000/svg" xmlns:xlink="http://www.w3.org/1999/xlink" width="219" height="196" viewBox="0 0 219 196">
  <defs>
    <clipPath id="clip-Artboard_1">
      <rect width="219" height="196"/>
    </clipPath>
  </defs>
  <g id="Artboard_1" data-name="Artboard – 1" clip-path="url(#clip-Artboard_1)">
    <g id="Group_8828" data-name="Group 8828" transform="translate(-743.625 81.677)">
      <path id="Path_13486" data-name="Path 13486" d="M163.822,45.225h.192a23.591,23.591,0,0,0-1.364-3.334c.384.98.779,2.162,1.172,3.334" transform="translate(206.033 -371.831)" fill="#72b8ab"/>
      <path id="Path_13487" data-name="Path 13487" d="M214.788,45.225H214.6a23.624,23.624,0,0,1,1.364-3.334c-.384.98-.778,2.162-1.172,3.334" transform="translate(653.138 -371.831)" fill="#72b8ab"/>
      <path id="Path_13488" data-name="Path 13488" d="M181.346,102.475a90.246,90.246,0,0,1-16.524-13.834c-1.249-1.345-2.4-2.69-3.555-4.131a101.59,101.59,0,0,0,20.079,17.965" transform="translate(194.129 -5.004)" fill="#347e79"/>
      <path id="Path_13489" data-name="Path 13489" d="M163.837,86.68a99.4,99.4,0,0,0,14.795,7.013,83.388,83.388,0,0,1-14.795-7.013" transform="translate(216.249 13.674)" fill="#347e79"/>
      <path id="Path_13490" data-name="Path 13490" d="M158.837,79.65,165.466,98c-.1-.1-.192-.192-.192-.288Z" transform="translate(173.214 -46.834)" fill="#347e79"/>
      <path id="Path_13491" data-name="Path 13491" d="M163.008,88.064c0,.1.1.192.1.288-.1-.192-.192-.288-.288-.48l-.1-.1c-.384-.769-.768-1.441-1.153-2.21l-.1-.1c-.48-1.057-1.057-2.113-1.634-3.17a2.007,2.007,0,0,1,.384.576c.288.48.48.961.769,1.441a2.888,2.888,0,0,0,.576,1.057c.48.961.961,1.825,1.441,2.69" transform="translate(181.821 -24.025)" fill="#347e79"/>
      <path id="Path_13492" data-name="Path 13492" d="M167.19,93.594c1.057,1.441,2.21,2.882,3.362,4.323a45.188,45.188,0,0,1-3.362-4.131,122.033,122.033,0,0,1-6.821-10.472.729.729,0,0,1-.192-.384l.192.192a122.052,122.052,0,0,0,6.821,10.472" transform="translate(184.747 -18.603)" fill="#347e79"/>
      <path id="Path_13493" data-name="Path 13493" d="M160.657,44.1l6.053,16.524-.288.769c-1.345-4.323-2.786-8.646-4.323-12.873-.385-1.633-1.057-2.978-1.441-4.419" transform="translate(188.879 -352.818)" fill="#347e79"/>
      <path id="Path_13494" data-name="Path 13494" d="M212.012,184.881l23.249,64.464-34.009-93.958L180.5,98.321,161.287,46.25l.288-.48,8.839,24.306,31.223,86.176Z" transform="translate(194.299 -338.444)" fill="#347e79"/>
      <path id="Path_13495" data-name="Path 13495" d="M169.285,67.5a1.513,1.513,0,0,1-.1.384l-.1-.288V67.4l-.1-.288.1-.192Z" transform="translate(260.662 -156.403)" fill="#347e79"/>
      <path id="Path_13496" data-name="Path 13496" d="M217.428,92.83a91.846,91.846,0,0,0,7.965-8.32c-1.153,1.441-2.4,2.786-3.555,4.131-1.393,1.489-2.93,2.805-4.41,4.189" transform="translate(677.514 -5.004)" fill="#347e79"/>
      <path id="Path_13497" data-name="Path 13497" d="M217.339,86.183c.288-.259.566-.538.855-.807-.288.269-.567.548-.855.807" transform="translate(676.748 2.45)" fill="#347e79"/>
      <path id="Path_13498" data-name="Path 13498" d="M214.147,104.194A96.227,96.227,0,0,0,244.813,85.46a93.066,93.066,0,0,1-30.666,18.734" transform="translate(649.274 3.172)" fill="#347e79"/>
      <path id="Path_13499" data-name="Path 13499" d="M210.785,67.112l-.1.288v.192l-.1.288a1.516,1.516,0,0,1-.1-.384l.192-.577Z" transform="translate(617.858 -156.403)" fill="#347e79"/>
      <path id="Path_13500" data-name="Path 13500" d="M235.259,45.78l.192.384L216.237,98.235Z" transform="translate(667.262 -338.358)" fill="#347e79"/>
      <path id="Path_13501" data-name="Path 13501" d="M218.621,61.489l-.384-.865L224.29,44.1c-.384,1.441-.961,2.786-1.345,4.419q-2.306,6.485-4.323,12.97" transform="translate(684.477 -352.818)" fill="#347e79"/>
      <path id="Path_13502" data-name="Path 13502" d="M228.45,83.122l.192-.192a.73.73,0,0,1-.192.384,121.845,121.845,0,0,1-6.821,10.472,45.191,45.191,0,0,1-3.363,4.131c1.153-1.441,2.306-2.882,3.363-4.323a121.863,121.863,0,0,0,6.821-10.472" transform="translate(684.735 -18.603)" fill="#347e79"/>
      <path id="Path_13505" data-name="Path 13505" d="M728.266,533.791a121.843,121.843,0,0,1-6.821,10.472c-1.056,1.441-2.209,2.882-3.362,4.323-.1.1-.192.1-.1.192-1.249,1.441-2.5,2.882-3.843,4.323-1.633,1.633-3.267,3.267-5,4.8-2.21,1.922-4.419,3.843-6.725,5.572-.193.192-.48.384-.673.577-.768.48-1.537,1.057-2.306,1.633h-.1a.094.094,0,0,1-.1.1,5.357,5.357,0,0,0-.768.48v.1c-.288.192-.672.384-.961.576-.864.576-1.729,1.153-2.594,1.633a16.677,16.677,0,0,1-2.5,1.441c-.193.192-.48.288-.673.48-.288.192-.576.288-.865.48h-.1v.1a3.25,3.25,0,0,0-1.153.576l-1.153.576c-.864.384-1.633.865-2.5,1.249l-.576.288c-.384.192-.865.384-1.249.577-1.921.768-3.747,1.537-5.668,2.306a84.371,84.371,0,0,1-8.742,2.786c-1.249.288-2.5.577-3.747.961a4.824,4.824,0,0,0-1.153.192c-1.345.288-2.69.48-4.034.769-1.249.192-2.5.384-3.747.48-1.249.192-2.5.288-3.747.384a65.25,65.25,0,0,1-7.494.384h-.768a94.1,94.1,0,0,1-88.674-60.237L444.28,238.756l-112.115,283.6a90.417,90.417,0,0,1-5.38,11.528v.1q-1.153,2.162-2.594,4.323a2.919,2.919,0,0,1-.672.961v.1c-1.153,1.729-2.4,3.459-3.555,5.092a44.3,44.3,0,0,1-3.842,4.8v.1c-1.345,1.537-2.69,3.074-4.131,4.515-2.882,2.882-5.956,5.668-9.127,8.262A95.025,95.025,0,0,1,243.491,582.6h-.865a65.824,65.824,0,0,1-7.59-.384c-1.249-.1-2.5-.192-3.746-.384-1.153-.1-2.306-.288-3.554-.48l-4.612-.865c-1.633-.384-3.171-.768-4.708-1.153a86.4,86.4,0,0,1-8.454-2.69,99.417,99.417,0,0,1-14.795-7.013l-4.612-2.882a101.566,101.566,0,0,1-20.079-17.965c0-.1,0-.1-.1-.192-1.153-1.441-2.305-2.882-3.363-4.323a122.036,122.036,0,0,1-6.821-10.472c30.262,34.586,81.757-142.858,84.734-152.945l.1.192L362.235,86c13.258-33.913,45.346-55.241,81.853-55.433h.385c36.507.192,68.595,21.52,81.852,55.433L643.435,381.038l.1-.192c2.978,10.088,54.568,187.531,84.734,152.945" transform="translate(184.92 -469.272)" fill="#72b8ab"/>
      <path id="Path_13506" data-name="Path 13506" d="M160.657,44.1l6.053,16.524-.288.769c-1.345-4.323-2.786-8.646-4.323-12.873-.385-1.633-1.057-2.978-1.441-4.419" transform="translate(188.879 -352.818)" fill="#72b8ab"/>
      <path id="Path_13507" data-name="Path 13507" d="M199.552,150.945l-.1.192L165.447,57.18l10.76,29.494Z" transform="translate(230.105 -240.237)" fill="#72b8ab"/>
      <path id="Path_13508" data-name="Path 13508" d="M180.464,82.97q-1.153,2.162-2.594,4.323a2.919,2.919,0,0,1-.672.961c1.153-1.729,2.21-3.459,3.267-5.284" transform="translate(331.241 -18.259)" fill="#72b8ab"/>
      <path id="Path_13509" data-name="Path 13509" d="M210.527,150.171l33.817-92.9-33.721,93.093Z" transform="translate(618.115 -239.462)" fill="#72b8ab"/>
      <path id="Path_13510" data-name="Path 13510" d="M218.237,60.624,224.29,44.1c-.384,1.441-.961,2.786-1.345,4.419q-2.306,6.485-4.323,12.97Z" transform="translate(684.477 -352.818)" fill="#72b8ab"/>
      <path id="Path_13512" data-name="Path 13512" d="M521.682,61.412c-63.983,63.983-83.39,116.15-105.1,175.522l-1.826,4.612L365.661,377.294l-43.9,121.434-.672,1.825L308.4,535.524l-6.725,18.35c0,.288-.192.48-.289.769-.384.961-.768,1.922-1.152,2.786-.384.961-.865,1.825-1.249,2.69-.1.288-.288.48-.288.768v.1a2,2,0,0,0-.384.577,10.506,10.506,0,0,1-.769,1.441,2.88,2.88,0,0,1-.576,1.057c-.48.961-.961,1.825-1.441,2.69a.354.354,0,0,0-.1.288l-.193.192c-30.167,34.586-81.757-142.858-84.735-152.945v-.1l.1-.288v-.192l.1-.288.1.192,33.72-93.093.288-.865,20.751-57.066,19.215-52.071.384.865q2.018-6.485,4.323-12.97c.384-1.633.96-2.978,1.345-4.419l-6.052,16.524-.192-.384,4.9-13.546c.384-1.633.96-2.978,1.345-4.419l.192-.192c.384-1.249.865-2.4,1.249-3.458a13.344,13.344,0,0,1,.576-1.537c11.817-31.9,24.69-65.617,44.289-101.355C374.5,18.084,467.113,6.652,521.682,61.412" transform="translate(617.944 -502.708)" fill="#347e79"/>
      <path id="Path_13513" data-name="Path 13513" d="M210.785,67.112l-.1.288v.192l-.1.288a1.516,1.516,0,0,1-.1-.384l.192-.577Z" transform="translate(617.858 -156.403)" fill="#347e79"/>
      <path id="Path_13514" data-name="Path 13514" d="M253.85,45.866l.193.384L234.828,98.321l-20.751,57.066L253.754,45.77Z" transform="translate(648.671 -338.444)" fill="#347e79"/>
      <path id="Path_13517" data-name="Path 13517" d="M447.8,414.186v.1c-2.978,10.088-54.473,187.531-84.735,152.945l-.192-.192c0-.1-.1-.192-.1-.288-.48-.865-.961-1.729-1.441-2.69a2.889,2.889,0,0,1-.577-1.057c-.288-.48-.48-.961-.768-1.441a2.014,2.014,0,0,0-.384-.577v-.1c0-.288-.192-.48-.288-.768-.384-.865-.865-1.729-1.249-2.69-.384-.865-.769-1.825-1.153-2.786-.1-.288-.288-.48-.288-.769L350,535.524l-13.354-36.7v-.192l-44-121.338L243.554,241.546l-1.825-4.612c-21.616-59.372-41.119-111.539-105.1-175.522C191.2,6.652,283.9,18.084,321.18,85.622c19.695,35.739,32.472,69.46,44.289,101.355a12.131,12.131,0,0,1,.672,1.537q.577,1.585,1.153,3.458l.192.192c.384,1.441,1.057,2.786,1.441,4.419l4.9,13.45-.288.48-6.052-16.524c.384,1.441,1.057,2.786,1.441,4.419,1.537,4.227,2.978,8.55,4.323,12.874l.288-.769,19.214,52.071L413.5,319.652l34.009,93.958.1-.192.1.288v.192Z" transform="translate(-17.95 -502.708)" fill="#347e79"/>
      <path id="Path_13518" data-name="Path 13518" d="M170.8,112.529l6.629,18.35c-.1-.1-.192-.192-.192-.288L157.447,75.83Z" transform="translate(161.25 -79.714)" fill="#347e79"/>
      <path id="Path_13519" data-name="Path 13519" d="M160.1,82.62c.48.96.961,1.825,1.441,2.69l-.192-.192-.1-.1c-.384-.769-.768-1.441-1.153-2.21l-.1-.1Z" transform="translate(183.284 -21.272)" fill="#347e79"/>
      <path id="Path_13520" data-name="Path 13520" d="M170.414,70.076l30.839,85.311L180.5,98.321,161.287,46.25l.288-.48Z" transform="translate(194.299 -338.444)" fill="#347e79"/>
      <path id="Path_13521" data-name="Path 13521" d="M169.285,67.5a1.513,1.513,0,0,1-.1.384l-.1-.288V67.4l-.1-.288.1-.192Z" transform="translate(260.662 -156.403)" fill="#347e79"/>
    </g>
  </g>
</svg>
