<svg id="surface1" xmlns="http://www.w3.org/2000/svg" width="108.864" height="108.863" viewBox="0 0 108.864 108.863">
  <path id="Path_13544" data-name="Path 13544" d="M468.74,81.215,449.105,61.543v78.832h26.277V97.188A22.527,22.527,0,0,0,468.74,81.215Zm0,0" transform="translate(-366.519 -50.281)" fill="#ffb782"/>
  <path id="Path_13545" data-name="Path 13545" d="M15.347,76.037.5,37.5a7.507,7.507,0,0,1,4.308-9.7L74.872.812a7.506,7.506,0,0,1,9.7,4.308L99.419,43.654a7.507,7.507,0,0,1-4.308,9.7L25.052,80.344A7.51,7.51,0,0,1,15.347,76.037Zm0,0" transform="translate(0 -0.307)" fill="#de4c3c"/>
  <path id="Path_13546" data-name="Path 13546" d="M116.2,101.961l-84,32.562,5.594,14.52L121.8,116.5Zm0,0" transform="translate(-26.275 -83.266)" fill="#7a4930"/>
  <path id="Path_13547" data-name="Path 13547" d="M0,49.1V7.809A7.508,7.508,0,0,1,7.512.3H82.59A7.508,7.508,0,0,1,90.1,7.809V49.1A7.508,7.508,0,0,1,82.59,56.61H7.512A7.508,7.508,0,0,1,0,49.1Zm0,0" transform="translate(-0.003 -0.301)" fill="#4398d1"/>
  <path id="Path_13548" data-name="Path 13548" d="M163.806.3h-7.977L99.52,56.61h64.286a7.508,7.508,0,0,0,7.508-7.508V7.809A7.508,7.508,0,0,0,163.806.3Zm0,0" transform="translate(-81.219 -0.301)" fill="#3e8cc7"/>
  <path id="Path_13549" data-name="Path 13549" d="M40.832,163.609H48.34v3.754H40.832Zm0,0" transform="translate(-33.323 -133.578)" fill="#5eb3d1"/>
  <path id="Path_13550" data-name="Path 13550" d="M40.832,224.852H48.34v3.754H40.832Zm0,0" transform="translate(-33.323 -183.559)" fill="#5eb3d1"/>
  <path id="Path_13551" data-name="Path 13551" d="M224.555,224.852h7.508v3.754h-7.508Zm0,0" transform="translate(-183.261 -183.559)" fill="#5eb3d1"/>
  <path id="Path_13552" data-name="Path 13552" d="M102.074,163.609h7.507v3.754h-7.507Zm0,0" transform="translate(-83.304 -133.578)" fill="#5eb3d1"/>
  <path id="Path_13553" data-name="Path 13553" d="M163.313,163.609h7.508v3.754h-7.508Zm0,0" transform="translate(-133.281 -133.578)" fill="#5eb3d1"/>
  <path id="Path_13554" data-name="Path 13554" d="M224.555,163.609h7.508v3.754h-7.508Zm0,0" transform="translate(-183.261 -133.578)" fill="#5eb3d1"/>
  <path id="Path_13555" data-name="Path 13555" d="M418.484,41.129h3.754V46.76h-3.754Zm0,0" transform="translate(-341.528 -33.621)" fill="#5eb3d1"/>
  <path id="Path_13556" data-name="Path 13556" d="M377.656,41.129h3.754V46.76h-3.754Zm0,0" transform="translate(-308.208 -33.621)" fill="#5eb3d1"/>
  <path id="Path_13557" data-name="Path 13557" d="M336.828,41.129h3.754V46.76h-3.754Zm0,0" transform="translate(-274.888 -33.621)" fill="#5eb3d1"/>
  <path id="Path_13558" data-name="Path 13558" d="M296,41.129h3.753V46.76H296Zm0,0" transform="translate(-241.571 -33.621)" fill="#5eb3d1"/>
  <path id="Path_13559" data-name="Path 13559" d="M408.277,490.23h33.785V509H408.277Zm0,0" transform="translate(-333.198 -400.136)" fill="#347e79"/>
  <path id="Path_13560" data-name="Path 13560" d="M316.721,174.156a8.137,8.137,0,0,0-11.75,11.253l15.382,16.78a25.313,25.313,0,0,0,.512,25.971l1.365,2.183h24.4V204.066Zm0,0" transform="translate(-247.151 -140.249)" fill="#ffb782"/>
  <path id="Path_13561" data-name="Path 13561" d="M438.9,520.852h3.754v3.754H438.9Zm0,0" transform="translate(-358.189 -425.127)" fill="#6b962a"/>
  <path id="Path_13562" data-name="Path 13562" d="M40.832,53.141V44.132a3,3,0,0,1,3-3h9.009a3,3,0,0,1,3,3v9.009a3,3,0,0,1-3,3H43.835A3,3,0,0,1,40.832,53.141Zm0,0" transform="translate(-33.323 -33.621)" fill="#fdb62f"/>
  <path id="Path_13563" data-name="Path 13563" d="M40.832,71.75h5.631V75.5H40.832Zm0,0" transform="translate(-33.323 -58.611)" fill="#fd7b2f"/>
  <path id="Path_13564" data-name="Path 13564" d="M91.867,71.75H97.5V75.5h-5.63Zm0,0" transform="translate(-74.973 -58.611)" fill="#fd7b2f"/>
  <path id="Path_13565" data-name="Path 13565" d="M489.211,297.458a1.873,1.873,0,0,1-1.327-.55l-7.508-7.508a1.877,1.877,0,0,1,2.654-2.654l7.508,7.508a1.877,1.877,0,0,1-1.327,3.2Zm0,0" transform="translate(-391.609 -233.642)" fill="#f2a46f"/>
</svg>
