<svg id="twitter" xmlns="http://www.w3.org/2000/svg" width="31.959" height="28.157" viewBox="0 0 31.959 28.157">
  <path id="Path_12444" data-name="Path 12444" d="M31.7,10.039c.782,11.732-7.821,21.118-18.771,21.118A24.932,24.932,0,0,1,2.425,29.234a.674.674,0,0,1,.337-1.279c3.645-.242,6.661-1.112,8.6-3.055,4.693-4.693,5.475-6.257,6.671-12.477A7.041,7.041,0,0,1,30.412,5.978L33.1,5.594A.782.782,0,0,1,33.86,6.8Z" transform="translate(-2.034 -3)" fill="#347e79" opacity="0.25"/>
  <path id="Path_12445" data-name="Path 12445" d="M11.225,23.944c-8.473-2.824-9.934-13.3-8.412-18.76a.726.726,0,0,1,1.349-.07C6.761,9.559,11.7,12.04,17.9,11.468,27.65,11.468,25.3,28.637,11.225,23.944Z" transform="translate(-1.893 -2.045)" fill="#347e79"/>
</svg>
